<?xml version="1.0" encoding="UTF-8"?>
<svg width="48px" height="60px" viewBox="0 0 48 60" version="1.1" xmlns="http://www.w3.org/2000/svg" xmlns:xlink="http://www.w3.org/1999/xlink">
    <title>ring</title>
    <g id="Final-Design" stroke="none" stroke-width="1" fill="none" fill-rule="evenodd">
        <g id="Desktop-HD" transform="translate(-949.000000, -4684.000000)" fill="#061F40" fill-rule="nonzero">
            <g id="Book-an-Event-" transform="translate(49.000000, 4571.000000)">
                <g id="Weddings" transform="translate(681.000000, 86.000000)">
                    <g id="ring" transform="translate(219.000000, 27.000000)">
                        <path d="M18.5948235,14.4084375 C19.9585882,14.1421875 21.6291765,14.00625 23.5585882,14.00625 C32.2117647,14.00625 32.3124706,15.9984375 32.3124706,16.018125 C32.3124706,16.5365625 32.7331765,16.955625 33.2536471,16.955625 C33.7731765,16.955625 34.1948235,16.5365625 34.1948235,16.018125 C34.1948235,13.4390625 30.6155294,12.13125 23.5585882,12.13125 C21.5068235,12.13125 19.7157647,12.2784375 18.2324706,12.568125 C17.7223529,12.6675 17.3901176,13.160625 17.4898824,13.66875 C17.5896471,14.1778125 18.0847059,14.5059375 18.5948235,14.4084375 Z" id="Path"></path>
                        <path d="M15.8437647,14.184375 C15.5312941,13.771875 14.9421176,13.685625 14.5261176,13.9959375 C13.4682353,14.784375 13.3101176,15.601875 13.3101176,16.0190625 C13.3101176,16.5375 13.7317647,16.9603125 14.2512941,16.9603125 C14.7708235,16.9603125 15.1924706,16.5440625 15.1924706,16.025625 C15.1990588,15.973125 15.2978824,15.763125 15.6536471,15.4978125 C16.0705882,15.1865625 16.1552941,14.59875 15.8437647,14.184375 Z" id="Path"></path>
                        <path d="M33.6169412,22.86375 C36.7237647,22.16625 39.0475294,19.48125 39.0475294,16.1540625 C39.0475294,13.4775 37.5350588,7.3875 23.5181176,7.3875 C8.88188235,7.3875 8.45929412,15.241875 8.45929412,16.1540625 C8.45929412,19.42125 10.7002353,22.0678125 13.7223529,22.8225 C7.90964706,26.2246875 3.98870588,32.503125 3.98870588,39.6909375 C3.98870588,50.4825 12.8018824,59.26125 23.6357647,59.26125 C34.4696471,59.26125 43.2828235,50.4825 43.2828235,39.6909375 C43.2818824,32.53125 39.392,26.27625 33.6169412,22.86375 Z M12.224,16.1540625 C12.224,14.3428125 14.5769412,11.1375 23.5181176,11.1375 C33.7929412,11.1375 35.2828235,14.3428125 35.2828235,16.1540625 C35.2828235,17.9653125 33.8230588,19.2965625 32.0197647,19.2965625 L15.4870588,19.2965625 C13.6847059,19.2965625 12.224,17.9653125 12.224,16.1540625 Z M23.6357647,55.51125 C14.864,55.51125 7.75341176,48.4284375 7.75341176,39.6909375 C7.75341176,30.9534375 14.864,23.870625 23.6357647,23.870625 C32.4075294,23.870625 39.5181176,30.9534375 39.5181176,39.6909375 C39.5181176,48.4284375 32.4075294,55.51125 23.6357647,55.51125 Z" id="Shape"></path>
                        <path d="M6.58823529,15.5465625 C6.58823529,14.5115625 5.74494118,13.6715625 4.70588235,13.6715625 L1.88235294,13.6715625 C0.843294118,13.6715625 0,14.5115625 0,15.5465625 C0,16.5815625 0.843294118,17.4215625 1.88235294,17.4215625 L4.70588235,17.4215625 C5.74494118,17.4215625 6.58823529,16.5825 6.58823529,15.5465625 Z" id="Path"></path>
                        <path d="M7.65552941,6.9515625 C8.02258824,7.318125 8.50447059,7.5009375 8.98635294,7.5009375 C9.46823529,7.5009375 9.95011765,7.318125 10.3171765,6.9515625 C11.0522353,6.219375 11.0522353,5.0325 10.3171765,4.3003125 L8.32094118,2.311875 C7.58682353,1.5796875 6.39341176,1.5796875 5.65929412,2.311875 C4.92423529,3.0440625 4.92423529,4.2309375 5.65929412,4.963125 L7.65552941,6.9515625 Z" id="Path"></path>
                        <path d="M46.1176471,13.6715625 L43.2941176,13.6715625 C42.2550588,13.6715625 41.4117647,14.5115625 41.4117647,15.5465625 C41.4117647,16.5815625 42.2550588,17.4215625 43.2941176,17.4215625 L46.1176471,17.4215625 C47.1567059,17.4215625 48,16.5815625 48,15.5465625 C48,14.5115625 47.1567059,13.6715625 46.1176471,13.6715625 Z" id="Path"></path>
                        <path d="M38.576,7.5009375 C39.0578824,7.5009375 39.5397647,7.318125 39.9068235,6.9515625 L41.9030588,4.963125 C42.6381176,4.2309375 42.6381176,3.0440625 41.9030588,2.311875 C41.1698824,1.5796875 39.9764706,1.5796875 39.2414118,2.311875 L37.2451765,4.3003125 C36.5101176,5.0325 36.5101176,6.219375 37.2451765,6.9515625 C37.6131765,7.318125 38.0950588,7.5009375 38.576,7.5009375 Z" id="Path"></path>
                        <path d="M24.0781176,5.625 C25.1171765,5.625 25.9604706,4.785 25.9604706,3.75 L25.9604706,1.875 C25.9604706,0.84 25.1171765,0 24.0781176,0 C23.0390588,0 22.1957647,0.84 22.1957647,1.875 L22.1957647,3.75 C22.1957647,4.785 23.0390588,5.625 24.0781176,5.625 Z" id="Path"></path>
                    </g>
                </g>
            </g>
        </g>
    </g>
</svg>